<?xml version="1.0" encoding="UTF-8"?>
<svg xmlns="http://www.w3.org/2000/svg" xmlns:xlink="http://www.w3.org/1999/xlink" width="50px" height="50px" viewBox="0 0 50 50" version="1.1">
<g id="surface1">
<path style=" stroke:none;fill-rule:nonzero;fill:rgb(14.117648%,47.058824%,74.117649%);fill-opacity:1;" d="M 0 0 L 14.710938 0 L 14.710938 14.710938 L 0 14.710938 Z M 0 0 "/>
<path style=" stroke:none;fill-rule:nonzero;fill:rgb(14.117648%,47.058824%,74.117649%);fill-opacity:1;" d="M 0 17.6875 L 14.710938 17.6875 L 14.710938 32.398438 L 0 32.398438 Z M 0 17.6875 "/>
<path style=" stroke:none;fill-rule:nonzero;fill:rgb(14.117648%,47.058824%,74.117649%);fill-opacity:1;" d="M 17.6875 17.6875 L 32.398438 17.6875 L 32.398438 32.398438 L 17.6875 32.398438 Z M 17.6875 17.6875 "/>
<path style=" stroke:none;fill-rule:nonzero;fill:rgb(14.117648%,47.058824%,74.117649%);fill-opacity:1;" d="M 35.289062 17.6875 L 50 17.6875 L 50 32.398438 L 35.289062 32.398438 Z M 35.289062 17.6875 "/>
<path style=" stroke:none;fill-rule:nonzero;fill:rgb(14.117648%,47.058824%,74.117649%);fill-opacity:1;" d="M 17.6875 35.289062 L 32.398438 35.289062 L 32.398438 50 L 17.6875 50 Z M 17.6875 35.289062 "/>
<path style=" stroke:none;fill-rule:nonzero;fill:rgb(14.117648%,47.058824%,74.117649%);fill-opacity:1;" d="M 35.289062 35.289062 L 50 35.289062 L 50 50 L 35.289062 50 Z M 35.289062 35.289062 "/>
<path style=" stroke:none;fill-rule:nonzero;fill:rgb(14.117648%,47.058824%,74.117649%);fill-opacity:1;" d="M 17.6875 0 L 32.398438 0 L 32.398438 14.710938 L 17.6875 14.710938 Z M 17.6875 0 "/>
<path style=" stroke:none;fill-rule:nonzero;fill:rgb(25.490198%,71.372551%,28.627452%);fill-opacity:1;" d="M 35.289062 0 L 50 0 L 50 14.710938 L 35.289062 14.710938 Z M 35.289062 0 "/>
<path style=" stroke:none;fill-rule:nonzero;fill:rgb(98.039216%,64.313728%,9.803922%);fill-opacity:1;" d="M 0 35.289062 L 14.710938 35.289062 L 14.710938 50 L 0 50 Z M 0 35.289062 "/>
</g>
</svg>
